<?xml version="1.0" encoding="UTF-8"?>
<svg id="Capa_1" data-name="Capa 1" xmlns="http://www.w3.org/2000/svg" xmlns:xlink="http://www.w3.org/1999/xlink" viewBox="0 0 219 49.29">
  <defs>
    <style>
      .cls-1 {
        fill: none;
      }

      .cls-2 {
        fill: #45c0f0;
      }

      .cls-3 {
        fill: #0098da;
      }

      .cls-4 {
        fill: #007bc3;
      }

      .cls-5 {
        clip-path: url(#clippath-1);
      }

      .cls-6 {
        fill: url(#Degradado_sin_nombre_7);
      }

      .cls-7 {
        fill: url(#Degradado_sin_nombre_9);
      }

      .cls-8 {
        clip-path: url(#clippath);
      }
    </style>
    <clipPath id="clippath">
      <path class="cls-1" d="M82.51,7.14c-2.94,1.77-4.99,4.32-6.57,7.3-.79,1.5-1.27,2.53-2.05,4.27.24.35.44.66.61.9.91,1.29,4.56,7.69,4.56,7.69l-5.89,1.77c3.93-1.15,7.56-2.18,11.67-3.4.48-.14,1.06-.35,1.35-.72,3.22-4.03,5.37-8.52,4.84-13.8-.34-3.39-2.17-5.23-4.67-5.23-1.17,0-2.48.4-3.86,1.23"/>
    </clipPath>
    <linearGradient id="Degradado_sin_nombre_9" data-name="Degradado sin nombre 9" x1="-395.33" y1="327.97" x2="-395.07" y2="327.97" gradientTransform="translate(23317.67 -27981.84) rotate(-90) scale(70.85 -70.85)" gradientUnits="userSpaceOnUse">
      <stop offset="0" stop-color="#0098da"/>
      <stop offset=".49" stop-color="#0095d8"/>
      <stop offset=".74" stop-color="#008dd1"/>
      <stop offset=".94" stop-color="#0080c7"/>
      <stop offset="1" stop-color="#007bc3"/>
    </linearGradient>
    <clipPath id="clippath-1">
      <path class="cls-1" d="M85.73,26.38c-3.15.91-6.47,1.9-6.47,1.9,0,0,.26,6.5.25,7.54,0,.26,0,.7,0,1.24,1.6,1.06,3.43,2.11,4.82,2.9,2.79,1.58,5.75,2.58,9.02,2.48,4.81-.14,6.95-3.34,4.79-7.59-2.29-4.5-6.32-7-10.97-8.58-.14-.05-.28-.06-.44-.06-.34,0-.7.09-1.02.18"/>
    </clipPath>
    <linearGradient id="Degradado_sin_nombre_7" data-name="Degradado sin nombre 7" x1="-392.7" y1="334.28" x2="-392.44" y2="334.28" gradientTransform="translate(-23834.09 28130) rotate(90) scale(71.57 -71.57)" gradientUnits="userSpaceOnUse">
      <stop offset="0" stop-color="#45c0f0"/>
      <stop offset="1" stop-color="#007ebf"/>
    </linearGradient>
  </defs>
  <g>
    <path class="cls-4" d="M105.26,36.78l.63-4.05c1.04.59,2.12,1.04,3.22,1.37,1.1.32,2.28.48,3.53.48,1.54,0,2.67-.29,3.39-.88.73-.58,1.09-1.41,1.09-2.48,0-.77-.29-1.39-.87-1.85-.58-.46-1.3-.87-2.17-1.21-.87-.35-1.81-.69-2.84-1.04-1.02-.34-1.96-.79-2.82-1.33-.86-.55-1.58-1.25-2.15-2.1-.58-.86-.87-1.98-.87-3.36,0-1.01.17-1.95.5-2.83.33-.88.85-1.65,1.54-2.31.7-.66,1.58-1.18,2.66-1.57,1.07-.39,2.35-.58,3.83-.58,1.23,0,2.42.12,3.59.35,1.17.23,2.21.56,3.13.99l-.59,3.9c-1-.35-1.99-.62-2.97-.8-.98-.18-1.95-.27-2.94-.27-.84,0-1.54.08-2.11.23-.57.15-1.03.36-1.37.63-.34.27-.59.57-.72.92-.14.35-.21.71-.21,1.1,0,.75.29,1.34.87,1.78.58.43,1.3.82,2.17,1.16.87.34,1.82.68,2.84,1.02,1.03.34,1.96.78,2.82,1.33s1.57,1.26,2.15,2.12c.58.86.87,2,.87,3.4,0,2.39-.77,4.27-2.3,5.65-1.53,1.38-3.69,2.07-6.49,2.07-1.42,0-2.75-.17-4-.5-1.25-.33-2.38-.78-3.41-1.35"/>
    <path class="cls-4" d="M175.47,13.47l4.11-.05v4.94h4.62v3.21h-4.62v10.98c0,.88.22,1.5.67,1.88.45.38,1.09.57,1.92.57.27,0,.56-.02.87-.06.32-.04.56-.1.73-.16l.27,3.09c-.33.15-.77.27-1.33.36-.56.09-1.14.14-1.75.14-1.85,0-3.24-.5-4.15-1.5-.92-1-1.37-2.42-1.37-4.25l.05-19.15Z"/>
    <path class="cls-4" d="M144.18,38.1v-19.7l2.99-.23.66,1.92c.75-.71,1.61-1.24,2.57-1.6.96-.36,1.98-.54,3.05-.54,2.11,0,3.78.62,4.99,1.85,1.22,1.24,1.82,3.06,1.82,5.47v12.83h-4.17v-12.79c0-1.25-.33-2.15-.97-2.71-.65-.56-1.59-.83-2.82-.83-.75,0-1.49.16-2.23.48-.74.32-1.31.76-1.71,1.33v14.52h-4.17Z"/>
    <path class="cls-4" d="M165.07,13.7c0-1.35.83-2.03,2.5-2.02,1.67,0,2.5.67,2.49,2.02,0,1.31-.84,1.97-2.53,1.97-.82,0-1.44-.14-1.85-.43-.41-.29-.62-.8-.62-1.54M165.42,38.1v-19.67l4.17-.22v19.89h-4.17Z"/>
    <path class="cls-4" d="M205.51,23.83c0-1.74.6-3.15,1.81-4.23,1.21-1.08,3.02-1.62,5.43-1.62,1.96,0,3.78.37,5.46,1.11l-.37,3.49c-.83-.35-1.71-.61-2.64-.77-.93-.16-1.77-.24-2.53-.24-.98,0-1.76.18-2.32.56-.56.37-.84.89-.84,1.55,0,.57.24,1.02.71,1.35.47.33,1.06.62,1.76.86.7.24,1.46.49,2.29.74.82.25,1.58.59,2.28,1.02.7.43,1.28,1,1.74,1.7.47.7.7,1.63.7,2.76,0,.96-.14,1.83-.41,2.62-.27.79-.7,1.46-1.3,2.01-.59.55-1.35.98-2.26,1.29-.92.31-2.02.46-3.31.46-1.19,0-2.3-.12-3.34-.36-1.04-.24-1.97-.61-2.81-1.12l.5-3.53c.77.51,1.68.89,2.73,1.15,1.05.26,2.02.39,2.92.39,1.21,0,2.08-.24,2.62-.72.53-.48.8-1.09.8-1.81,0-.63-.24-1.13-.71-1.48-.47-.36-1.07-.66-1.79-.93-.72-.26-1.5-.52-2.32-.77-.82-.25-1.6-.59-2.32-1.02-.72-.43-1.32-1-1.79-1.71-.47-.71-.71-1.63-.71-2.77"/>
    <path class="cls-4" d="M139.58,22.23c-.27-.96-.7-1.75-1.3-2.37-.6-.62-1.38-1.09-2.33-1.39-.95-.3-2.12-.46-3.5-.46-2.46-.01-4.66.41-6.61,1.25l.37,3.42c.92-.39,1.8-.67,2.63-.85.84-.18,1.79-.26,2.86-.26,1.48,0,2.53.26,3.16.79.63.53.95,1.42.95,2.67v7.24c0,.34-.11.68-.33,1.02-.22.34-.51.63-.87.88-.36.25-.78.45-1.24.61-.47.15-.96.23-1.48.23-.98,0-1.77-.23-2.38-.69-.61-.46-.92-1.26-.92-2.42,0-1,.31-1.76.93-2.29.62-.53,1.61-.79,2.96-.79.83,0,1.22.05,1.8.18.08.02.16.04.18,0v-2.81c-.23-.04-.22-.07-.54-.13-.69-.12-1.42-.18-2.18-.18-2.34,0-4.11.55-5.32,1.65-1.21,1.1-1.81,2.58-1.81,4.43,0,2.19.56,3.8,1.69,4.85,1.12,1.05,2.61,1.57,4.46,1.57,1.18,0,2.25-.22,3.21-.65.96-.43,1.74-1.03,2.35-1.8l.1.03.38,2.1h3.18v-12.39c0-1.33-.13-2.48-.4-3.43"/>
    <path class="cls-4" d="M201.64,22.23c-.27-.96-.7-1.75-1.3-2.37-.6-.62-1.37-1.09-2.33-1.39-.95-.3-2.12-.46-3.5-.46-2.46-.01-4.66.41-6.61,1.25l.37,3.42c.92-.39,1.8-.67,2.63-.85.83-.18,1.79-.26,2.86-.26,1.48,0,2.53.26,3.16.79.63.53.95,1.42.95,2.67v7.24c0,.34-.11.68-.33,1.02-.22.34-.51.63-.87.88-.36.25-.78.45-1.24.61-.47.15-.96.23-1.48.23-.98,0-1.77-.23-2.38-.69-.61-.46-.92-1.26-.92-2.42,0-1,.31-1.76.93-2.29.62-.53,1.61-.79,2.96-.79.83,0,1.22.05,1.8.18.09.02.16.04.18,0v-2.81c-.23-.04-.22-.07-.54-.13-.69-.12-1.42-.18-2.18-.18-2.34,0-4.11.55-5.32,1.65-1.21,1.1-1.81,2.58-1.81,4.43,0,2.19.56,3.8,1.69,4.85,1.12,1.05,2.61,1.57,4.46,1.57,1.18,0,2.25-.22,3.21-.65.96-.43,1.74-1.03,2.35-1.8l.1.03.38,2.1h3.18v-12.39c0-1.33-.14-2.48-.4-3.43"/>
  </g>
  <g>
    <path class="cls-4" d="M15.96,36.05l-.1,2.14H0V12.33h15.23l.1,2.14H2.24v9.2h11.34v1.93H2.24v10.44h13.72Z"/>
    <path class="cls-4" d="M38.22,20.02c0,2.6-.66,4.53-1.98,5.81-1.32,1.28-3.46,1.91-6.43,1.91h-5.96v10.44h-2.27V12.33h8.24c2.94,0,5.08.6,6.41,1.81,1.33,1.21,2,3.17,2,5.88ZM35.91,20.02c0-2.07-.5-3.53-1.5-4.38-1-.85-2.53-1.28-4.6-1.28h-5.96v11.41h5.96c1.01,0,1.9-.09,2.65-.28.76-.18,1.4-.5,1.91-.95s.9-1.04,1.15-1.77c.25-.74.38-1.65.38-2.76Z"/>
    <path class="cls-4" d="M57.77,31.05c0,2.37-.71,4.23-2.12,5.58-1.41,1.36-3.51,2.03-6.29,2.03-1.49,0-2.84-.18-4.05-.55-1.21-.37-2.3-.85-3.29-1.45l.41-2.14c1.01.67,2.07,1.17,3.19,1.5,1.11.33,2.36.5,3.74.5,2.07,0,3.62-.47,4.65-1.41,1.03-.94,1.55-2.25,1.55-3.93,0-1.15-.33-2.06-.98-2.72-.65-.67-1.48-1.22-2.46-1.67-.99-.45-2.05-.85-3.19-1.21-1.14-.36-2.2-.8-3.19-1.34-.99-.54-1.81-1.23-2.46-2.07-.65-.84-.98-1.97-.98-3.4,0-.97.16-1.87.48-2.71.32-.84.81-1.57,1.46-2.19.65-.62,1.49-1.1,2.5-1.45,1.01-.34,2.21-.52,3.58-.52,1.26,0,2.45.12,3.57.36,1.11.24,2.13.58,3.05,1.02l-.41,2.03c-.99-.41-1.97-.74-2.95-.97-.98-.23-2.03-.34-3.15-.34s-1.99.13-2.74.38c-.75.25-1.36.59-1.84,1.02-.48.43-.83.91-1.05,1.46-.22.55-.33,1.14-.33,1.76,0,1.1.33,1.96.98,2.59.65.62,1.48,1.14,2.46,1.57.99.43,2.06.82,3.21,1.17,1.15.36,2.22.81,3.21,1.36.99.55,1.81,1.27,2.46,2.15.65.88.98,2.07.98,3.57Z"/>
  </g>
  <g>
    <g class="cls-8">
      <rect class="cls-7" x="69.77" y="3.46" width="25.2" height="28.04" transform="translate(-1.01 29.23) rotate(-20)"/>
    </g>
    <path class="cls-4" d="M69.98,29.45v-.03c-.01.07-.03.13-.05.19v-.02s.02-.04.02-.04l.03-.09Z"/>
    <path class="cls-4" d="M70.12,29.05v-.03s0,.02,0,.03c-.03.07-.05.14-.07.2h0s.04-.14.04-.14c0-.02.01-.04.02-.07Z"/>
    <path class="cls-4" d="M70.15,28.98c.02-.07.05-.14.08-.22l-.06.17-.02.05Z"/>
    <path class="cls-4" d="M73.49,19.68s0,.02,0,.03l-3.22,8.95s.01-.04.02-.07c.02-.05.04-.11.06-.17,0-.02.01-.04.02-.05.02-.07.05-.14.07-.21.08-.21.16-.44.24-.68.02-.07.05-.14.07-.21.03-.07.05-.14.08-.22.03-.07.05-.15.08-.22,0,0,0-.02.01-.03.02-.06.05-.13.07-.19.05-.13.1-.26.14-.4.03-.1.07-.2.1-.29.07-.2.14-.4.21-.6.03-.08.06-.16.09-.24.04-.12.09-.24.13-.37.02-.06.04-.11.06-.17.02-.06.05-.13.07-.2,0,0,0-.01,0-.02.07-.2.14-.4.21-.59,0-.01.01-.03.02-.04.04-.11.08-.21.11-.32.03-.08.06-.16.09-.24.04-.12.09-.24.13-.36.07-.2.14-.39.21-.58.05-.15.11-.3.16-.45.03-.07.05-.14.08-.22.04-.11.08-.21.11-.31.03-.09.07-.18.1-.27.04-.11.08-.22.12-.33.02-.05.04-.1.06-.16.1-.27.19-.51.26-.72,0-.02.02-.04.02-.07Z"/>
    <path class="cls-3" d="M73.89,18.7c-.04.09-.08.19-.13.29-.01.02-.02.06-.04.1,0,.02-.02.04-.03.07-.05.13-.12.3-.2.52,0,.02-.02.04-.02.07-.08.21-.17.45-.26.72-.02.05-.04.1-.06.16-.04.11-.08.22-.12.33-.03.09-.07.18-.1.27-.04.1-.08.21-.11.31-.02.07-.05.14-.08.22-.05.15-.11.29-.16.45-.07.19-.14.38-.21.58-.04.12-.09.24-.13.36-.03.08-.06.16-.09.24-.04.11-.08.21-.11.32,0,.01,0,.03-.02.04-.07.2-.14.4-.21.59,0,0,0,.01,0,.02-.02.06-.05.13-.07.2-.02.06-.04.12-.06.17-.04.12-.09.25-.13.37-.03.08-.06.16-.09.24-.07.2-.14.4-.21.6-.04.1-.07.2-.1.29-.05.14-.1.27-.14.4-.02.06-.05.13-.07.19,0,0,0,.02-.01.03-.03.07-.05.15-.08.22-.02.07-.05.14-.08.22-.03.07-.05.14-.07.21-.08.24-.17.47-.24.68-.03.07-.05.14-.07.21,0,.02-.01.04-.02.05-.02.06-.04.11-.06.17,0,.02-.02.05-.02.07l-.03.09c-.03.08-.05.15-.08.22v.04s-.02.03-.02.03c0,.02-.01.04-.02.07-.02.05-.03.1-.05.14,0,0,0,.01,0,.02,0,.03-.02.05-.03.08,0,0,0,.01,0,.02,0,.01,0,.03-.01.04v.02s-.02.03-.02.03l-.02.07s-.02.06-.03.09c0,0,0,.01,0,.02l-.1.27c-.47-.04-.85-.29-1.15-.86-1.77-4.55-2.65-8.12-2.53-12.64,0-.28.05-.57.11-.85.59-3.05,2.52-3.12,4-1.72,1.06.99,2.61,3.34,3.64,4.87Z"/>
    <path class="cls-3" d="M70.01,29.35l.03-.1s0,.01,0,.02c0,.03-.02.05-.03.08Z"/>
    <path class="cls-3" d="M70.13,29.02s0,.02-.01.03c-.03.07-.05.14-.07.2h0s.04-.14.04-.14c0-.02.01-.04.02-.07v-.03Z"/>
    <path class="cls-3" d="M70.23,28.76l-.06.17-.02.05c.02-.07.05-.14.08-.22Z"/>
    <path class="cls-3" d="M69.99,29.42c-.02.07-.05.13-.07.19v-.02s.02-.04.02-.04l.03-.09v-.03Z"/>
    <g>
      <path class="cls-4" d="M79.06,27.29s-3.65-6.4-4.56-7.69c-.17-.24-.38-.55-.61-.9-.04.09-.08.19-.13.29-.01.02-.02.06-.04.1,0,.02-.02.04-.03.07-.05.13-.12.3-.2.52,0,0,0,.02,0,.03l-3.22,8.95-.03.09-.06.17-.02.05v.04s-.02.02-.02.03l-.02.06s-.03.1-.05.14c0,0,0,.01,0,.02,0,.03-.02.05-.03.08,0,0,0,.01,0,.02,0,.01,0,.03-.01.04v.02s-.03.07-.04.1c0,.03-.02.06-.03.09,0,0,0,.01,0,.02l-.1.27c.21.02.44,0,.69-.05,0,0,.01,0,.02,0,.91-.27,1.79-.53,2.66-.79l5.89-1.77Z"/>
      <path class="cls-4" d="M70.83,29.76l2.35-.71c-.87.25-1.75.52-2.65.79.1-.02.2-.05.31-.08Z"/>
    </g>
    <path class="cls-3" d="M73.49,19.68s0,.02,0,.03c0,.01,0,.02-.01.04,0-.02.02-.04.02-.07Z"/>
    <g class="cls-5">
      <rect class="cls-6" x="77.1" y="23.09" width="25.37" height="22.54" transform="translate(-6.34 32.78) rotate(-20)"/>
    </g>
    <path class="cls-4" d="M79.52,37.05h0s-.1-.06-.15-.09c.05.03.1.06.15.09Z"/>
    <path class="cls-2" d="M79.31,42.21c-.51,2.71-1.89,2.75-3.97.92-.19-.17-.38-.34-.54-.54-2.56-3.13-3.74-6.67-4.92-10.27-.11-.61.06-1.01.42-1.3l.08.05.08.05.04.03.05.03.06.04.07.04.13.08,8.42,5.5h.02s.05.04.07.06l.08.05s.1.06.15.1h0c0,1.58,0,3.99-.21,5.16Z"/>
    <path class="cls-4" d="M79.51,35.82c0-1.04-.25-7.54-.25-7.54l-2.98.85c-1.44.42-2.89.84-4.33,1.25.02,0,.04-.01.05-.02-.08.01-.99.26-.99.26-.28.11-.53.24-.72.39l.08.05.08.05.04.03.05.03.06.04.07.04.13.08c.71.46,2.19,1.42,3.77,2.45.12.08.25.16.37.24.13.08.25.16.38.25.31.2.62.41.93.61.06.04.12.08.18.12.07.05.14.09.21.14.14.09.28.18.41.27.2.13.4.26.59.39.25.17.49.32.72.47.11.07.22.14.32.21.1.07.2.13.29.19.09.06.18.12.25.17h.02s.05.04.07.06l.08.05s.1.06.15.09c0-.53,0-.97,0-1.23Z"/>
    <path class="cls-2" d="M79.21,36.85l-8.42-5.5c.71.46,2.19,1.42,3.77,2.45.12.08.25.16.37.24.13.08.25.16.38.25.31.21.62.41.93.61.06.04.12.08.18.12.07.05.14.09.21.14.14.09.28.18.41.27.2.13.4.26.59.39.25.17.49.33.72.47.11.07.22.14.32.21.1.07.2.13.29.19.09.06.18.12.25.17Z"/>
    <path class="cls-2" d="M79.52,37.05h0s-.1-.06-.15-.09c.05.03.1.06.15.09Z"/>
    <polyline class="cls-1" points="70.1 29.11 70.12 29.05 70.12 29.05"/>
  </g>
</svg>